<?xml version="1.0" standalone="no"?>
<!DOCTYPE svg PUBLIC "-//W3C//DTD SVG 20010904//EN"
 "http://www.w3.org/TR/2001/REC-SVG-20010904/DTD/svg10.dtd">
<svg version="1.0" xmlns="http://www.w3.org/2000/svg"
 width="1280.000000pt" height="1218.000000pt" viewBox="0 0 1280.000000 1218.000000"
 preserveAspectRatio="xMidYMid meet">

<g transform="translate(0.000000,1218.000000) scale(0.100000,-0.100000)"
fill="green" stroke="none">
<path d="M6369 12167 c-10 -8 -69 -176 -144 -412 -70 -220 -146 -461 -170
-535 -24 -74 -60 -187 -80 -250 -20 -63 -59 -185 -87 -270 -28 -85 -63 -195
-78 -245 -15 -49 -47 -148 -70 -220 -23 -71 -87 -272 -141 -445 -55 -173 -118
-369 -139 -435 -21 -66 -73 -228 -115 -360 -42 -132 -84 -265 -95 -295 -10
-30 -46 -143 -80 -250 -78 -247 -254 -800 -286 -898 -3 -11 -126 -12 -681 -8
-373 3 -1466 8 -2430 12 l-1752 7 -13 -27 c-8 -20 -9 -32 -1 -44 5 -9 185
-143 400 -297 214 -154 533 -383 709 -509 175 -126 479 -344 674 -485 195
-140 531 -381 745 -535 215 -154 431 -309 482 -345 50 -36 241 -174 425 -306
183 -131 370 -266 416 -298 45 -33 82 -64 82 -70 0 -5 -97 -305 -216 -666
-330 -1001 -643 -1951 -659 -1996 -88 -258 -635 -1926 -635 -1938 0 -21 27
-47 48 -47 18 0 79 44 651 465 194 143 375 276 401 295 27 19 128 94 226 165
97 72 204 150 238 175 33 24 201 147 371 272 445 327 544 400 690 508 159 117
919 676 1167 857 100 73 186 129 192 126 6 -4 88 -63 181 -132 94 -68 226
-166 295 -216 69 -50 204 -149 300 -220 96 -71 231 -170 300 -220 69 -50 204
-149 300 -220 96 -71 231 -170 300 -220 69 -50 204 -149 300 -220 96 -71 231
-170 300 -220 69 -50 204 -149 300 -220 96 -71 231 -170 300 -220 69 -50 204
-149 300 -220 96 -71 231 -170 300 -220 69 -50 179 -131 244 -179 66 -48 130
-96 144 -107 33 -26 78 -25 92 2 12 21 -21 121 -775 2399 -123 371 -284 857
-358 1080 -389 1174 -379 1142 -365 1156 7 6 103 77 213 156 110 79 303 218
428 309 126 90 238 171 250 179 12 8 96 69 187 134 91 66 266 192 390 281 124
89 337 242 474 341 137 98 382 275 545 392 163 117 403 291 535 385 131 95
255 184 275 198 140 99 590 426 609 442 29 27 28 53 -3 73 -23 15 -80 16 -643
10 -525 -5 -3159 -19 -3961 -20 l-255 -1 -37 115 c-20 63 -152 477 -294 920
-141 443 -263 823 -270 845 -8 22 -44 135 -80 250 -62 195 -169 529 -285 890
-26 83 -78 245 -115 360 -37 116 -82 257 -101 315 -18 58 -91 286 -162 507
-70 221 -134 408 -141 417 -16 19 -40 20 -62 3z m794 -2590 c371 -1160 679
-2113 684 -2118 12 -12 752 -12 2971 2 970 6 1765 9 1767 7 2 -2 -753 -548
-1677 -1213 -925 -666 -1788 -1286 -1917 -1380 -130 -93 -237 -178 -239 -187
-2 -10 96 -316 216 -680 219 -660 941 -2840 1151 -3478 61 -184 109 -335 108
-336 -1 -1 -844 615 -1874 1369 l-1872 1372 -1 4379 c0 2409 2 4377 4 4375 3
-2 308 -953 679 -2112z"/>
</g>
</svg>
