<?xml version="1.0" standalone="no"?>
<!DOCTYPE svg PUBLIC "-//W3C//DTD SVG 20010904//EN"
 "http://www.w3.org/TR/2001/REC-SVG-20010904/DTD/svg10.dtd">
<svg version="1.0" xmlns="http://www.w3.org/2000/svg"
 width="1280.000000pt" height="1220.000000pt" viewBox="0 0 1280.000000 1220.000000"
 preserveAspectRatio="xMidYMid meet">

<g transform="translate(0.000000,1220.000000) scale(0.100000,-0.100000)"
fill="green" stroke="none">
<path d="M5676 9867 c-412 -1277 -752 -2326 -757 -2331 -5 -6 -384 -5 -981 2
-1579 20 -2520 32 -3243 42 -373 5 -681 8 -683 6 -4 -5 -96 62 2180 -1584
l1786 -1293 -60 -177 c-33 -97 -109 -321 -168 -497 -60 -176 -154 -455 -210
-620 -56 -165 -151 -444 -210 -620 -176 -520 -296 -873 -520 -1535 -368 -1087
-410 -1212 -397 -1202 7 5 428 313 937 684 509 371 1391 1014 1960 1429 569
416 1040 759 1047 762 7 5 601 -432 1475 -1084 805 -600 1687 -1259 1961
-1463 273 -204 502 -372 507 -374 5 -2 -27 104 -70 235 -83 251 -150 457 -430
1313 -94 289 -211 647 -260 795 -49 149 -166 506 -260 795 -162 497 -257 787
-419 1280 -39 119 -71 222 -70 230 0 8 284 216 632 461 348 246 974 689 1392
984 418 296 1030 729 1360 963 330 233 605 429 610 434 7 7 -782 8 -2442 4
l-2452 -7 -31 98 c-17 54 -344 1106 -727 2338 -383 1232 -699 2243 -702 2247
-4 4 -343 -1038 -755 -2315z"/>
</g>
</svg>
